<svg width="20" height="20" viewBox="0 0 20 20" fill="none" xmlns="http://www.w3.org/2000/svg">
<path d="M13.0107 8.09912C13.0107 7.8335 12.9092 7.57568 12.7217 7.396L7.63574 2.31006C7.44824 2.12256 7.19043 2.01318 6.92481 2.01318C6.65918 2.01318 6.40918 2.12256 6.22168 2.31006L5.63574 2.896C5.44824 3.07568 5.33887 3.3335 5.33887 3.59912C5.33887 3.86475 5.44824 4.12256 5.63574 4.30225L7.92481 6.59912H2.4248C1.8623 6.59912 1.51074 7.06787 1.51074 7.59912V8.59912C1.51074 9.13037 1.8623 9.59912 2.4248 9.59912H7.92481L5.63574 11.8882C5.44824 12.0757 5.33887 12.3335 5.33887 12.5991C5.33887 12.8647 5.44824 13.1226 5.63574 13.3101L6.22168 13.896C6.40918 14.0757 6.65918 14.1851 6.92481 14.1851C7.19043 14.1851 7.44824 14.0757 7.63574 13.896L12.7217 8.81006C12.9092 8.62256 13.0107 8.36475 13.0107 8.09912Z" fill="#17C1E8"/>
</svg>
